PathFileType	4	(X/Y/Z)	Walk9.trc
DataRate	CameraRate	NumFrames	NumMarkers	Units	OrigDataRate	OrigDataStartFrame	OrigNumFrames
200.000000	200.000000	8	59	mm	200.000000	309	603
Frame#	Times		LFHD		RFHD		RASI		RACR1		RUA1		RFA1		RWRR		RCAR		LACR1		LUA1		LElbow		LWRU		RTH2		RMT5		LTH3		LLFC		LTB1		LMT1		LTB4		LMT5		RLFC		LTB2		CLAV		LTB3		LToe		STRN		LFA1		LTH2		LTH4		LLMAL		RBHD		RTH3		LASI		LTH1		RMT1		RBack		RElbowM		C7		LPSI		LCAR		LBHD		RToe		RPSI		RCAL		RElbow		RTH4		RLMAL		RTH1		RTB2		RTB3		RTB4		LWRR		RTB1		RMMAL		LMMAL		T10		RWRU		LCAL		LElbowM
			X1	Y1	Z1	X2	Y2	Z2	X3	Y3	Z3	X4	Y4	Z4	X5	Y5	Z5	X6	Y6	Z6	X7	Y7	Z7	X8	Y8	Z8	X9	Y9	Z9	X10	Y10	Z10	X11	Y11	Z11	X12	Y12	Z12	X13	Y13	Z13	X14	Y14	Z14	X15	Y15	Z15	X16	Y16	Z16	X17	Y17	Z17	X18	Y18	Z18	X19	Y19	Z19	X20	Y20	Z20	X21	Y21	Z21	X22	Y22	Z22	X23	Y23	Z23	X24	Y24	Z24	X25	Y25	Z25	X26	Y26	Z26	X27	Y27	Z27	X28	Y28	Z28	X29	Y29	Z29	X30	Y30	Z30	X31	Y31	Z31	X32	Y32	Z32	X33	Y33	Z33	X34	Y34	Z34	X35	Y35	Z35	X36	Y36	Z36	X37	Y37	Z37	X38	Y38	Z38	X39	Y39	Z39	X40	Y40	Z40	X41	Y41	Z41	X42	Y42	Z42	X43	Y43	Z43	X44	Y44	Z44	X45	Y45	Z45	X46	Y46	Z46	X47	Y47	Z47	X48	Y48	Z48	X49	Y49	Z49	X50	Y50	Z50	X51	Y51	Z51	X52	Y52	Z52	X53	Y53	Z53	X54	Y54	Z54	X55	Y55	Z55	X56	Y56	Z56	X57	Y57	Z57	X58	Y58	Z58	X59	Y59	Z59

309	1.545	-200.52	1576.4	-58.647	-194.96	1577.2	38.849	-253.53	962.21	182.73	-327.97	1381.5	170.4	-369.78	1242.6	263.26	-360.75	949.17	310.9	-380.89	846.38	344.53	-353.42	785.7	320.39	-314.44	1351.3	-187.85	-338.31	1202.3	-257.43	-416.15	1068.3	-285.25	-431.39	825.62	-341.32	-270.6	632.66	219.49	-563.13	71.85	198.5	-263.94	562.03	-160.85	-272.29	487.57	-141.88	-242.05	334.05	-38.631	-172.91	35.32	-23.887	-254.42	249.32	-44.285	-187.78	25.694	-115.14	-331.03	459.72	218.78	-253.13	252.54	-105.63	-246.82	1336.8	-6.6373	-260.27	163.72	-46.858	-129.72	30.827	-23.462	-186.95	1221	-0.020613	-386.35	937.54	-314.76	-214.98	655.68	-162.46	-268.29	645.45	-189.18	-304.73	68.495	-108.47	-364.9	1568.9	57.041	-328.44	544.9	222.32	-241	963.88	-166.5	-269.18	725.92	-217.13	-543.53	67.512	115.11	-468.12	1320.1	95.071	-458.2	1069.6	220.94	-406.97	1416.4	-2.9691	-481.84	983.15	-95.306	-402.45	772.12	-340.39	-352.78	1556.1	-78.169	-513.82	39.908	127.79	-502.25	977.4	38.477	-669.98	202.65	140.9	-418.21	1081.9	303.62	-330.02	631.24	232.37	-611.65	190.15	190.68	-318.56	714.41	243.41	-432.21	306.36	202.74	-488.83	236.83	143.02	-422.14	290.97	142.9	-378.8	816.9	-288.78	-350.3	338.34	144.22	-585.15	181.95	108.92	-297.51	72.712	-22.647	-467.24	1086.1	-4.6139	-355.89	842.52	274.93	-361.39	29.24	-69.172	-425.69	1035.5	-182.78
310	1.55	-195.93	1576.8	-59.603	-190.48	1577.6	37.88	-249.6	962.94	182.6	-324.15	1382.3	169.49	-366.4	1243.6	262.32	-358.13	949.79	309.92	-378.81	847.04	343.39	-351.72	786.18	319.12	-310	1351.5	-188.91	-333.06	1202.5	-258.47	-410.31	1068.1	-286.63	-423	825.26	-342.44	-264.03	634.57	219.69	-553.19	73.477	198.62	-262.42	561.8	-160.87	-271.1	487.47	-142.03	-241.89	333.99	-38.548	-172.92	35.31	-23.904	-254.24	249.21	-44.298	-187.79	25.676	-115.16	-322.66	461.19	218.98	-252.81	252.46	-105.61	-242.53	1337.4	-7.6175	-260.14	163.63	-46.919	-129.68	30.811	-23.542	-182.65	1221.7	-0.95198	-379.23	937.63	-315.83	-213.05	655.23	-162.86	-266.56	645.22	-189.2	-304.73	68.491	-108.45	-360.42	1569.5	55.872	-320.9	546.13	222.44	-236.69	964.11	-166.86	-267.15	725.61	-217.33	-532.86	68.459	115.4	-463.99	1320.6	93.735	-454.94	1070.7	219.93	-402.57	1417	-4.2132	-477.54	983.64	-95.773	-393.41	772.16	-341.47	-348.17	1556.7	-79.312	-503.18	40.954	128.6	-497.96	977.86	38.022	-660.58	202.97	139.01	-414.96	1082.8	302.6	-323.37	632.46	232.2	-602.5	191.17	189.43	-313.11	715.75	243.46	-423.46	307.71	202.58	-479.47	237.89	142.64	-413.43	292.24	142.99	-370.56	817.12	-289.71	-341.16	339.7	144.53	-575.29	182.64	107.91	-297.5	72.704	-22.683	-462.88	1086.6	-5.319	-353.78	843.12	273.78	-361.43	29.25	-69.15	-420.59	1035.4	-184.24
311	1.555	-191.34	1577.3	-60.52	-186	1578.1	36.949	-245.71	963.6	182.49	-320.3	1383	168.6	-363.01	1244.5	261.41	-355.47	950.38	308.96	-376.68	847.69	342.29	-349.94	786.66	317.91	-305.55	1351.7	-189.93	-327.84	1202.6	-259.47	-404.46	1067.9	-287.99	-414.55	824.91	-343.54	-257.49	636.51	219.88	-542.82	74.838	198.6	-260.81	561.58	-160.85	-269.91	487.37	-142.17	-241.74	333.96	-38.472	-172.92	35.301	-23.923	-254.08	249.14	-44.306	-187.8	25.655	-115.18	-314.36	462.7	219.15	-252.49	252.41	-105.57	-238.26	1337.9	-8.5646	-260.02	163.57	-46.962	-129.63	30.791	-23.622	-178.36	1222.4	-1.8017	-372.07	937.72	-316.88	-211.08	654.82	-163.19	-264.78	645	-189.18	-304.73	68.493	-108.43	-355.96	1570.1	54.745	-313.41	547.42	222.54	-232.4	964.27	-167.21	-265.12	725.32	-217.46	-521.81	69.246	115.53	-459.85	1321.2	92.451	-451.67	1071.7	218.96	-398.18	1417.5	-5.3943	-473.23	984.1	-96.236	-384.3	772.22	-342.57	-343.57	1557.2	-80.416	-492.09	41.921	129.2	-493.66	978.32	37.572	-650.95	202.88	137.16	-411.7	1083.7	301.62	-316.74	633.74	232.06	-593.06	191.84	188.15	-307.66	717.14	243.51	-414.6	308.96	202.4	-469.91	238.79	142.24	-404.54	293.42	143.05	-362.27	817.34	-290.64	-331.93	341.05	144.83	-565.18	183.08	106.87	-297.49	72.713	-22.732	-458.53	1087.1	-6.0203	-351.62	843.71	272.66	-361.46	29.263	-69.128	-415.47	1035.3	-185.69
312	1.56	-186.77	1577.7	-61.398	-181.54	1578.5	36.054	-241.85	964.2	182.38	-316.44	1383.8	167.75	-359.62	1245.4	260.52	-352.77	950.95	308.04	-374.49	848.32	341.23	-348.09	787.12	316.75	-301.11	1351.9	-190.91	-322.66	1202.7	-260.43	-398.59	1067.7	-289.34	-406.05	824.57	-344.62	-250.97	638.47	220.06	-532.01	75.927	198.44	-259.12	561.37	-160.79	-268.73	487.29	-142.3	-241.59	333.95	-38.409	-172.93	35.295	-23.944	-253.93	249.09	-44.312	-187.8	25.632	-115.2	-306.12	464.22	219.28	-252.18	252.38	-105.54	-234	1338.5	-9.4793	-259.93	163.53	-46.991	-129.58	30.769	-23.703	-174.08	1222.9	-2.5685	-364.88	937.82	-317.91	-209.07	654.43	-163.47	-262.95	644.79	-189.11	-304.73	68.5	-108.41	-351.51	1570.7	53.661	-305.96	548.76	222.64	-228.14	964.35	-167.56	-263.06	725.05	-217.54	-510.39	69.867	115.51	-455.71	1321.7	91.219	-448.38	1072.7	218.02	-393.79	1418	-6.5146	-468.92	984.53	-96.695	-375.12	772.32	-343.66	-338.98	1557.8	-81.482	-480.57	42.799	129.58	-489.37	978.78	37.126	-641.07	202.38	135.36	-408.43	1084.5	300.68	-310.14	635.06	231.92	-583.35	192.17	186.87	-302.22	718.56	243.56	-405.62	310.11	202.21	-460.16	239.53	141.82	-395.47	294.48	143.06	-353.93	817.58	-291.56	-322.63	342.38	145.11	-554.83	183.25	105.8	-297.48	72.739	-22.795	-454.19	1087.6	-6.718	-349.41	844.27	271.57	-361.49	29.28	-69.108	-410.35	1035.1	-187.13
313	1.565	-182.2	1578.1	-62.238	-177.08	1578.8	35.195	-238.03	964.75	182.27	-312.55	1384.4	166.91	-356.2	1246.2	259.66	-350.03	951.49	307.15	-372.24	848.93	340.23	-346.16	787.58	315.65	-296.66	1352.1	-191.85	-317.52	1202.8	-261.36	-392.71	1067.4	-290.66	-397.5	824.25	-345.69	-244.46	640.45	220.23	-520.79	76.741	198.15	-257.33	561.17	-160.69	-267.57	487.22	-142.43	-241.43	333.97	-38.362	-172.94	35.291	-23.969	-253.8	249.08	-44.321	-187.81	25.607	-115.23	-297.93	465.74	219.38	-251.88	252.38	-105.5	-229.76	1338.9	-10.362	-259.86	163.52	-47.005	-129.54	30.744	-23.784	-169.82	1223.5	-3.2513	-357.65	937.92	-318.92	-207.01	654.07	-163.68	-261.04	644.6	-189.02	-304.73	68.513	-108.39	-347.06	1571.2	52.617	-298.55	550.15	222.72	-223.91	964.36	-167.91	-260.95	724.8	-217.57	-498.61	70.321	115.33	-451.56	1322.2	90.035	-445.07	1073.6	217.11	-389.41	1418.5	-7.5775	-464.61	984.93	-97.154	-365.88	772.46	-344.76	-334.4	1558.4	-82.51	-468.63	43.579	129.77	-485.08	979.23	36.682	-630.96	201.47	133.61	-405.15	1085.3	299.76	-303.56	636.42	231.81	-573.37	192.15	185.6	-296.79	720.02	243.61	-396.54	311.14	201.99	-450.23	240.1	141.39	-386.21	295.43	143.03	-345.54	817.84	-292.47	-313.26	343.7	145.38	-544.24	183.16	104.73	-297.48	72.783	-22.871	-449.87	1088.1	-7.4125	-347.16	844.82	270.51	-361.52	29.299	-69.089	-405.22	1034.9	-188.54
314	1.57	-177.64	1578.4	-63.04	-172.63	1579.2	34.373	-234.24	965.26	182.18	-308.63	1385	166.09	-352.77	1247	258.82	-347.26	952.02	306.28	-369.94	849.52	339.27	-344.15	788.04	314.62	-292.21	1352.3	-192.74	-312.42	1202.8	-262.25	-386.8	1067.2	-291.97	-388.9	823.95	-346.75	-237.98	642.42	220.38	-509.17	77.28	197.74	-255.46	560.98	-160.56	-266.44	487.16	-142.55	-241.26	334	-38.335	-172.94	35.29	-23.995	-253.67	249.1	-44.337	-187.81	25.581	-115.26	-289.8	467.25	219.44	-251.6	252.39	-105.48	-225.53	1339.4	-11.212	-259.82	163.54	-47.008	-129.5	30.718	-23.864	-165.56	1223.9	-3.8495	-350.39	938.03	-319.91	-204.9	653.74	-163.85	-259.05	644.42	-188.89	-304.72	68.53	-108.38	-342.63	1571.8	51.614	-291.17	551.57	222.78	-219.69	964.31	-168.26	-258.78	724.58	-217.56	-486.48	70.607	115.03	-447.41	1322.7	88.898	-441.75	1074.5	216.22	-385.05	1419	-8.5877	-460.31	985.3	-97.615	-356.58	772.64	-345.84	-329.83	1558.9	-83.502	-456.3	44.254	129.77	-480.78	979.68	36.238	-620.62	200.15	131.94	-401.86	1086.1	298.88	-297.01	637.78	231.7	-563.12	191.77	184.33	-291.35	721.48	243.66	-387.35	312.06	201.75	-440.12	240.51	140.93	-376.77	296.27	142.97	-337.11	818.12	-293.36	-303.83	344.99	145.62	-533.42	182.81	103.64	-297.47	72.844	-22.958	-445.56	1088.5	-8.1043	-344.86	845.36	269.5	-361.54	29.323	-69.072	-400.06	1034.7	-189.93
315	1.575	-173.09	1578.8	-63.807	-168.19	1579.5	33.588	-230.46	965.74	182.09	-304.68	1385.6	165.29	-349.31	1247.7	258	-344.44	952.52	305.45	-367.58	850.1	338.37	-342.06	788.49	313.65	-287.76	1352.4	-193.59	-307.35	1202.9	-263.11	-380.87	1066.9	-293.25	-380.24	823.67	-347.78	-231.52	644.38	220.52	-497.16	77.55	197.25	-253.51	560.82	-160.4	-265.33	487.12	-142.68	-241.07	334.05	-38.327	-172.94	35.292	-24.024	-253.55	249.15	-44.364	-187.81	25.552	-115.29	-281.71	468.74	219.47	-251.33	252.42	-105.46	-221.32	1339.8	-12.03	-259.79	163.57	-47.003	-129.45	30.691	-23.943	-161.32	1224.4	-4.3629	-343.09	938.14	-320.87	-202.71	653.42	-163.95	-256.97	644.27	-188.75	-304.72	68.552	-108.37	-338.2	1572.3	50.65	-283.84	553	222.82	-215.5	964.2	-168.61	-256.53	724.38	-217.51	-474.02	70.726	114.61	-443.25	1323.2	87.805	-438.4	1075.3	215.34	-380.7	1419.4	-9.5504	-456.01	985.65	-98.079	-347.23	772.87	-346.92	-325.27	1559.5	-84.457	-443.58	44.821	129.61	-476.49	980.13	35.794	-610.03	198.43	130.35	-398.57	1086.9	298.02	-290.49	639.16	231.59	-552.6	191.05	183.1	-285.91	722.93	243.71	-378.05	312.85	201.5	-429.84	240.76	140.46	-367.15	297	142.87	-328.63	818.42	-294.24	-294.35	346.26	145.85	-522.38	182.21	102.57	-297.47	72.917	-23.052	-441.26	1088.9	-8.7941	-342.51	845.89	268.54	-361.56	29.351	-69.058	-394.88	1034.4	-191.3
316	1.58	-168.54	1579.1	-64.537	-163.76	1579.7	32.839	-226.7	966.18	182.02	-300.71	1386.1	164.49	-345.82	1248.4	257.21	-341.58	953.01	304.65	-365.16	850.66	337.52	-339.89	788.93	312.75	-283.29	1352.6	-194.4	-302.32	1203	-263.94	-374.93	1066.7	-294.51	-371.54	823.42	-348.8	-225.08	646.32	220.63	-484.77	77.561	196.67	-251.49	560.67	-160.22	-264.27	487.1	-142.8	-240.88	334.1	-38.34	-172.95	35.297	-24.055	-253.44	249.23	-44.404	-187.81	25.523	-115.33	-273.66	470.19	219.46	-251.09	252.46	-105.45	-217.12	1340.2	-12.816	-259.77	163.62	-46.995	-129.41	30.663	-24.022	-157.08	1224.7	-4.7914	-335.75	938.27	-321.8	-200.46	653.12	-163.99	-254.8	644.12	-188.58	-304.72	68.577	-108.36	-333.79	1572.7	49.725	-276.54	554.43	222.84	-211.33	964.04	-168.96	-254.18	724.21	-217.42	-461.23	70.681	114.11	-439.09	1323.6	86.752	-435.02	1076.1	214.48	-376.37	1419.8	-10.471	-451.73	985.97	-98.548	-337.82	773.13	-347.99	-320.72	1560	-85.377	-430.49	45.276	129.33	-472.19	980.58	35.346	-599.22	196.33	128.85	-395.28	1087.6	297.18	-284	640.52	231.49	-541.83	189.99	181.89	-280.48	724.37	243.75	-368.64	313.52	201.24	-419.4	240.84	139.98	-357.38	297.61	142.73	-320.11	818.74	-295.09	-284.82	347.48	146.05	-511.11	181.34	101.51	-297.46	73	-23.149	-436.97	1089.3	-9.4827	-340.12	846.41	267.64	-361.57	29.385	-69.046	-389.68	1034.2	-192.64
